<svg xmlns="http://www.w3.org/2000/svg" viewBox="0 0 1200 720" role="img" aria-label="BaseBot WhatsApp cover">
  <defs>
    <linearGradient id="bg" x1="0" y1="0" x2="1" y2="1">
      <stop offset="0%" stop-color="#08131f" />
      <stop offset="55%" stop-color="#102a36" />
      <stop offset="100%" stop-color="#061019" />
    </linearGradient>
    <linearGradient id="accent" x1="0" y1="0" x2="1" y2="1">
      <stop offset="0%" stop-color="#25d366" />
      <stop offset="100%" stop-color="#7fffd4" />
    </linearGradient>
    <radialGradient id="glow" cx="50%" cy="50%" r="60%">
      <stop offset="0%" stop-color="#25d366" stop-opacity="0.35" />
      <stop offset="100%" stop-color="#25d366" stop-opacity="0" />
    </radialGradient>
    <filter id="shadow" x="-20%" y="-20%" width="140%" height="140%">
      <feDropShadow dx="0" dy="18" stdDeviation="22" flood-color="#000000" flood-opacity="0.45" />
    </filter>
  </defs>

  <rect width="1200" height="720" fill="url(#bg)" />
  <circle cx="290" cy="220" r="210" fill="url(#glow)" />
  <circle cx="980" cy="540" r="260" fill="#25d366" opacity="0.08" />
  <path d="M0 540 C160 470, 290 470, 430 520 S730 640, 900 590 S1080 500, 1200 560 L1200 720 L0 720 Z" fill="#0c1724" opacity="0.9" />

  <g opacity="0.18" stroke="#d7fff0" stroke-width="2">
    <path d="M100 110 H320" />
    <path d="M160 170 H430" />
    <path d="M840 120 H1070" />
    <path d="M880 180 H1130" />
    <path d="M120 620 H340" />
    <path d="M800 610 H1090" />
  </g>

  <g filter="url(#shadow)">
    <rect x="105" y="120" width="990" height="480" rx="42" fill="#0f1f2a" stroke="rgba(255,255,255,0.08)" />
    <rect x="145" y="160" width="420" height="400" rx="30" fill="#122a36" stroke="rgba(37,211,102,0.25)" />
    <rect x="615" y="160" width="440" height="400" rx="30" fill="#0d1823" stroke="rgba(127,255,212,0.18)" />

    <circle cx="255" cy="270" r="74" fill="url(#accent)" opacity="0.18" />
    <circle cx="255" cy="270" r="48" fill="#25d366" opacity="0.92" />
    <path d="M230 255 C245 235, 273 238, 282 257 C289 272, 284 286, 271 296 L281 317 L255 304 L236 306 C219 303, 210 282, 219 266 C223 260, 227 257, 230 255 Z" fill="#ffffff" opacity="0.95" />

    <text x="360" y="240" fill="#dffef0" font-family="Verdana, Arial, sans-serif" font-size="26" font-weight="700" letter-spacing="4">BASEBOT</text>
    <text x="360" y="280" fill="#7fffd4" font-family="Verdana, Arial, sans-serif" font-size="18" font-weight="600" letter-spacing="3">WHATSAPP AUTOMATION</text>
    <rect x="360" y="320" width="240" height="18" rx="9" fill="#25d366" opacity="0.7" />
    <rect x="360" y="355" width="190" height="10" rx="5" fill="#ffffff" opacity="0.16" />
    <rect x="360" y="380" width="260" height="10" rx="5" fill="#ffffff" opacity="0.12" />
    <rect x="360" y="405" width="220" height="10" rx="5" fill="#ffffff" opacity="0.12" />

    <g stroke="url(#accent)" stroke-width="3" fill="none" opacity="0.9">
      <path d="M675 255 h120 a26 26 0 0 1 26 26 v40 a26 26 0 0 1 -26 26 h-72 l-36 28 v-28 h-12 a26 26 0 0 1 -26 -26 v-40 a26 26 0 0 1 26 -26 z" />
    </g>
    <g fill="#7fffd4" opacity="0.9">
      <circle cx="725" cy="302" r="9" />
      <circle cx="760" cy="302" r="9" />
      <circle cx="795" cy="302" r="9" />
    </g>
    <path d="M690 438 L860 330 L965 398" stroke="#25d366" stroke-width="8" stroke-linecap="round" stroke-linejoin="round" fill="none" opacity="0.85" />
    <path d="M690 438 L760 382" stroke="#7fffd4" stroke-width="8" stroke-linecap="round" opacity="0.65" />
    <path d="M860 330 L860 470" stroke="#7fffd4" stroke-width="6" stroke-linecap="round" opacity="0.25" />

    <circle cx="905" cy="214" r="5" fill="#7fffd4" opacity="0.8" />
    <circle cx="935" cy="246" r="5" fill="#25d366" opacity="0.8" />
    <circle cx="962" cy="206" r="5" fill="#7fffd4" opacity="0.8" />
    <circle cx="992" cy="252" r="5" fill="#25d366" opacity="0.8" />
  </g>
</svg>
